    <svg version="1.1" id="Layer_1" xmlns="http://www.w3.org/2000/svg" xmlns:xlink="http://www.w3.org/1999/xlink" x="0px" y="0px"
	 width="100%" viewBox="0 0 1180 1180" xml:space="preserve">
<path fill="#ffa889" opacity="1.000000" stroke="none" 
	d="
M870.000000,87.999184 
	C888.666504,88.000778 906.833069,88.001587 924.999573,88.010300 
	C925.324707,88.010460 925.649902,88.105301 926.145630,88.182549 
	C926.026123,88.625458 926.045776,89.175583 925.780334,89.447014 
	C910.610718,104.961922 904.015381,124.229454 902.086243,145.248489 
	C900.931152,157.833832 900.454834,170.523056 900.448242,183.165985 
	C900.349609,373.497894 900.341431,563.829895 900.465332,754.161804 
	C900.473694,766.965637 901.119568,779.832947 902.508301,792.557312 
	C904.701965,812.657654 911.529663,831.002563 926.713196,846.190063 
	C842.063782,846.190063 758.189209,846.190063 673.857666,846.190063 
	C674.292603,845.449890 674.498474,844.890869 674.873779,844.490784 
	C689.693237,828.696350 695.951477,809.291138 697.855042,788.320740 
	C698.967773,776.062622 699.362305,763.701904 699.370789,751.386780 
	C699.469910,607.554565 699.459656,463.722260 699.404053,319.889954 
	C699.396606,300.733337 699.467651,281.511932 694.964600,262.725616 
	C693.505615,256.638824 691.230042,250.683044 688.698853,244.944901 
	C687.406128,242.014343 685.028259,239.358795 682.607483,237.168564 
	C675.941956,231.137970 668.043396,231.336823 661.685059,237.661224 
	C652.052551,247.242371 646.506958,259.430969 641.043884,271.544769 
	C624.752747,307.668915 613.232849,345.483582 602.067261,383.400116 
	C579.237854,460.925018 561.537354,539.741699 542.992615,618.348083 
	C533.572144,658.278931 524.947693,698.471680 509.981079,736.835449 
	C506.574158,745.568298 502.091583,754.106689 496.768555,761.811829 
	C489.571320,772.229919 481.855865,772.931396 473.369171,763.697937 
	C467.281067,757.074097 462.264893,749.144897 458.137421,741.096985 
	C443.626160,712.802368 433.086945,682.846008 423.049530,652.759705 
	C407.496582,606.140991 392.448151,559.354065 377.114807,512.661865 
	C356.962036,451.293640 337.635559,389.613129 312.891602,329.884766 
	C303.311920,306.760803 292.275848,284.201355 281.009003,261.835266 
	C276.812988,253.505661 270.666351,245.912384 264.329712,238.968445 
	C256.014526,229.856339 245.531723,231.091537 238.176483,241.113892 
	C231.871124,249.705673 229.619751,259.875977 228.196075,270.066223 
	C223.085571,306.645477 224.912964,343.218201 229.496948,379.690430 
	C238.775024,453.511017 266.151489,520.872559 303.664642,584.442017 
	C323.263245,617.653687 343.864807,650.272217 363.607727,683.400452 
	C376.213806,704.553223 387.325104,726.479797 393.443085,750.569702 
	C396.914307,764.237671 398.948151,778.063782 396.514282,792.104065 
	C392.282196,816.517578 376.758911,831.288147 354.477325,839.804504 
	C342.249481,844.478088 329.470123,846.532349 316.348175,846.523071 
	C264.681885,846.486694 213.015579,846.508179 161.349289,846.508179 
	C159.573410,846.508179 157.797531,846.508240 155.106064,846.508240 
	C157.899887,843.101685 160.154953,840.519104 162.227356,837.797424 
	C173.729523,822.691833 178.242676,805.085754 179.850723,786.632874 
	C180.774979,776.026733 181.093948,765.337891 181.097870,754.686096 
	C181.168472,563.354126 181.201050,372.022156 181.043137,180.690323 
	C181.031479,166.564880 180.226761,152.352966 178.513260,138.337433 
	C176.211395,119.509216 169.096191,102.479187 154.613724,87.999184 
	C157.458069,87.999184 159.208069,87.999184 160.958084,87.999184 
	C237.624191,87.999184 314.295868,88.529861 390.953583,87.727959 
	C420.053925,87.423553 439.647827,100.022278 453.160431,124.617218 
	C464.512909,145.280472 472.053619,167.446533 478.942352,189.825943 
	C497.118652,248.875305 514.970093,308.024597 533.003845,367.117950 
	C535.615356,375.675476 538.517639,384.144287 541.635010,393.729034 
	C545.632996,381.413391 549.511292,370.133392 552.961853,358.724091 
	C569.356628,304.515259 585.504333,250.231339 602.015991,196.058289 
	C609.084778,172.866577 616.312927,149.627609 628.121704,128.307587 
	C632.826599,119.813187 638.740723,111.798744 645.151978,104.483971 
	C654.600891,93.703445 667.339233,88.927223 681.514526,88.254829 
	C689.498474,87.876122 697.509338,88.010544 705.508118,88.008064 
	C760.172058,87.991127 814.836060,87.999184 870.000000,87.999184 
z"/>
</svg>